<svg width="20" height="22" viewBox="0 0 20 22" fill="none" xmlns="http://www.w3.org/2000/svg">
<path d="M18.4998 5H1.49983" stroke="#B2B2B2" stroke-width="2.6416" stroke-linecap="round"/>
<path d="M4.49982 5H4.60982C5.01226 4.98972 5.40224 4.85822 5.72874 4.62271C6.05524 4.3872 6.30307 4.05864 6.43982 3.68L6.47382 3.577L6.57082 3.286C6.65382 3.037 6.69582 2.913 6.75082 2.807C6.85902 2.59939 7.01433 2.41999 7.20429 2.28316C7.39426 2.14633 7.61362 2.05586 7.84482 2.019C7.96182 2 8.09282 2 8.35482 2H11.6448C11.9068 2 12.0378 2 12.1548 2.019C12.386 2.05586 12.6054 2.14633 12.7953 2.28316C12.9853 2.41999 13.1406 2.59939 13.2488 2.807C13.3038 2.913 13.3458 3.037 13.4288 3.286L13.5258 3.577C13.6525 3.99827 13.9146 4.36601 14.2715 4.62326C14.6284 4.88051 15.0601 5.01293 15.4998 5" stroke="#B2B2B2" stroke-width="2.6416"/>
<path d="M16.3738 14.4C16.1968 17.054 16.1088 18.381 15.2438 19.19C14.3788 20 13.0488 20 10.3878 20H9.61379C6.95379 20 5.62379 20 4.75779 19.19C3.89279 18.381 3.80479 17.054 3.62779 14.4L3.16779 7.5M16.8338 7.5L16.6338 10.5" stroke="#B2B2B2" stroke-width="2.6416" stroke-linecap="round"/>
</svg>
