<svg width="70" height="70" viewBox="0 0 70 70" fill="none" xmlns="http://www.w3.org/2000/svg">
<path d="M34.9998 0C15.7008 0 0 15.7009 0 35C0 54.2991 15.7008 70 34.9998 70C54.2988 70 69.9996 54.2991 69.9996 35C69.9996 15.7009 54.2988 0 34.9998 0ZM46.309 48.5408C42.6632 52.2277 37.8006 54.2581 32.6168 54.2581C21.9979 54.2581 13.3587 45.6189 13.3587 35C13.3587 24.3811 21.9979 15.7419 32.6168 15.7419C37.8006 15.7419 42.6631 17.7723 46.3088 21.4591C46.9459 22.1033 46.9402 23.1421 46.2958 23.7792C45.6516 24.4163 44.6127 24.4106 43.9757 23.7662C40.9511 20.7076 36.9173 19.0232 32.6168 19.0232C23.8071 19.0232 16.6401 26.1904 16.6401 35C16.6401 43.8096 23.8072 50.9768 32.6168 50.9768C36.9173 50.9768 40.9511 49.2923 43.9757 46.2336C44.6128 45.5894 45.6516 45.5834 46.2958 46.2206C46.9402 46.8578 46.9461 47.8965 46.309 48.5408ZM56.1602 36.1601L50.4083 41.912C50.088 42.2323 49.6681 42.3925 49.2483 42.3925C48.8284 42.3925 48.4085 42.2324 48.0882 41.912C47.4475 41.2713 47.4474 40.2325 48.0882 39.5917L51.0394 36.6406H32.6168C31.7108 36.6406 30.9762 35.906 30.9762 35C30.9762 34.094 31.7108 33.3594 32.6168 33.3594H51.0393L48.0882 30.4083C47.4475 29.7676 47.4474 28.7288 48.0882 28.088C48.729 27.4472 49.7676 27.4472 50.4084 28.088L56.1603 33.8398C56.4679 34.1474 56.6409 34.5648 56.6409 34.9999C56.6409 35.4349 56.4679 35.8524 56.1602 36.1601Z" fill="#5EBB46"/>
</svg>
