<svg width="20" height="20" viewBox="0 0 20 20" fill="none" xmlns="http://www.w3.org/2000/svg">
<path d="M10 6V10L7.5 12.5" stroke="#444444" stroke-width="1.5" stroke-linecap="round" stroke-linejoin="round"/>
<path d="M17.6617 4.87113L18.4117 4.87413C18.4109 5.07183 18.3321 5.26123 18.1923 5.40112C18.0526 5.54101 17.8634 5.62008 17.6657 5.62113L17.6617 4.87113ZM15.1197 5.63313C15.0212 5.63359 14.9235 5.61465 14.8324 5.57738C14.7412 5.54012 14.6583 5.48526 14.5883 5.41594C14.5183 5.34662 14.4627 5.2642 14.4246 5.17338C14.3865 5.08256 14.3666 4.98512 14.3662 4.88663C14.3657 4.78814 14.3846 4.69052 14.4219 4.59935C14.4592 4.50818 14.514 4.42525 14.5834 4.35528C14.6527 4.28531 14.7351 4.22968 14.8259 4.19156C14.9167 4.15345 15.0142 4.13359 15.1127 4.13313L15.1197 5.63313ZM16.9247 2.32113C16.9252 2.22264 16.9451 2.12522 16.9833 2.03442C17.0215 1.94363 17.0771 1.86125 17.1472 1.79197C17.2172 1.7227 17.3001 1.6679 17.3913 1.63069C17.4825 1.59349 17.5802 1.57461 17.6787 1.57513C17.7771 1.57566 17.8746 1.59558 17.9654 1.63375C18.0562 1.67193 18.1385 1.72762 18.2078 1.79763C18.2771 1.86765 18.3319 1.95062 18.3691 2.04182C18.4063 2.13301 18.4252 2.23064 18.4247 2.32913L16.9247 2.32113ZM18.1727 8.78513C18.1583 8.68711 18.1635 8.58722 18.1879 8.49121C18.2124 8.39521 18.2556 8.305 18.3151 8.2258C18.3746 8.1466 18.4493 8.07998 18.5347 8.02977C18.6201 7.97957 18.7146 7.94678 18.8127 7.93331C18.9109 7.91984 19.0107 7.92594 19.1065 7.95127C19.2023 7.9766 19.2921 8.02066 19.3707 8.08089C19.4494 8.14112 19.5153 8.21634 19.5647 8.3022C19.6142 8.38807 19.6461 8.48287 19.6587 8.58113L18.1727 8.78513ZM3.13766 3.13813C6.95766 -0.681867 13.1307 -0.721867 16.9257 3.07413L15.8657 4.13413C12.6657 0.935133 7.44266 0.954133 4.19766 4.19813L3.13766 3.13813ZM16.8617 16.8621C13.0417 20.6821 6.86866 20.7221 3.07366 16.9261L4.13366 15.8661C7.33366 19.0651 12.5567 19.0461 15.8017 15.8021L16.8617 16.8621ZM3.07366 16.9261C-0.721344 13.1311 -0.682343 6.95813 3.13766 3.13813L4.19766 4.19813C0.953657 7.44313 0.934658 12.6661 4.13366 15.8661L3.07366 16.9261ZM16.9257 3.07413L18.1927 4.34013L17.1317 5.40013L15.8657 4.13413L16.9257 3.07413ZM17.6657 5.62113L15.1197 5.63313L15.1127 4.13313L17.6577 4.12113L17.6657 5.62113ZM16.9117 4.86713L16.9247 2.32113L18.4247 2.32913L18.4117 4.87413L16.9117 4.86713ZM19.6597 8.58013C19.865 10.0828 19.7192 11.6126 19.2337 13.0494C18.7482 14.4862 17.9363 15.792 16.8617 16.8621L15.8017 15.8021C16.7124 14.8954 17.4006 13.7889 17.8119 12.5713C18.2233 11.3538 18.3468 10.0584 18.1727 8.78513L19.6597 8.58013Z" fill="#444444"/>
</svg>
