<svg width="20" height="21" viewBox="0 0 20 21" fill="none" xmlns="http://www.w3.org/2000/svg">
<g clip-path="url(#clip0_1_3968)">
<path d="M7.70828 0.97168H1.45828C0.654144 0.97168 0 1.62583 0 2.42997V6.18C0 6.9843 0.654144 7.63845 1.45828 7.63845H7.70828C8.51257 7.63845 9.16672 6.9843 9.16672 6.18V2.42997C9.16672 1.62583 8.51257 0.97168 7.70828 0.97168Z" fill="white"/>
<path d="M7.70828 9.30273H1.45828C0.654144 9.30273 0 9.95688 0 10.7612V19.5112C0 20.3154 0.654144 20.9695 1.45828 20.9695H7.70828C8.51257 20.9695 9.16672 20.3154 9.16672 19.5112V10.7612C9.16672 9.95688 8.51257 9.30273 7.70828 9.30273Z" fill="white"/>
<path d="M18.5424 14.3037H12.2924C11.4881 14.3037 10.834 14.9579 10.834 15.7622V19.5122C10.834 20.3163 11.4881 20.9705 12.2924 20.9705H18.5424C19.3466 20.9705 20.0007 20.3163 20.0007 19.5122V15.7622C20.0007 14.9579 19.3466 14.3037 18.5424 14.3037Z" fill="white"/>
<path d="M18.5424 0.97168H12.2924C11.4881 0.97168 10.834 1.62583 10.834 2.42997V11.18C10.834 11.9843 11.4881 12.6385 12.2924 12.6385H18.5424C19.3466 12.6385 20.0007 11.9843 20.0007 11.18V2.42997C20.0007 1.62583 19.3466 0.97168 18.5424 0.97168V0.97168Z" fill="white"/>
</g>
<defs>
<clipPath id="clip0_1_3968">
<rect width="20" height="20.0002" fill="white" transform="translate(0 0.97168)"/>
</clipPath>
</defs>
</svg>
