<svg width="22" height="20" viewBox="0 0 22 20" fill="none" xmlns="http://www.w3.org/2000/svg">
<path d="M13.2761 3.92085C14.2933 4.55864 15.0066 5.63791 15.1364 6.8907C15.5513 7.08454 16.0117 7.196 16.4999 7.196C18.282 7.196 19.7264 5.75158 19.7264 3.96972C19.7264 2.18759 18.282 0.743164 16.4999 0.743164C14.7348 0.743713 13.303 2.16233 13.2761 3.92085ZM11.1623 10.5272C12.9444 10.5272 14.3888 9.08246 14.3888 7.30061C14.3888 5.51875 12.9441 4.07433 11.1623 4.07433C9.38041 4.07433 7.93516 5.51903 7.93516 7.30088C7.93516 9.08274 9.38041 10.5272 11.1623 10.5272ZM12.5309 10.7471H9.79306C7.51509 10.7471 5.66185 12.6006 5.66185 14.8786V18.2268L5.67036 18.2792L5.90099 18.3514C8.0749 19.0306 9.96356 19.2572 11.5181 19.2572C14.5544 19.2572 16.3143 18.3915 16.4227 18.3363L16.6382 18.2273H16.6613V14.8786C16.6621 12.6006 14.8089 10.7471 12.5309 10.7471ZM17.8691 7.4162H15.1524C15.123 8.50315 14.659 9.48194 13.9251 10.1859C15.9499 10.788 17.4314 12.6657 17.4314 14.8835V15.9153C20.1138 15.817 21.6596 15.0568 21.7614 15.0057L21.9769 14.8964H22V11.5471C22 9.26943 20.1468 7.4162 17.8691 7.4162ZM5.50069 7.19655C6.13189 7.19655 6.71916 7.01233 7.21665 6.69851C7.37479 5.66701 7.92774 4.76565 8.71763 4.15175C8.72093 4.09135 8.72669 4.0315 8.72669 3.97055C8.72669 2.18842 7.28199 0.743988 5.50069 0.743988C3.71828 0.743988 2.27413 2.18842 2.27413 3.97055C2.27413 5.75185 3.71828 7.19655 5.50069 7.19655ZM8.39833 10.1859C7.66802 9.48551 7.20567 8.51194 7.1719 7.43157C7.07113 7.42416 6.97147 7.4162 6.86879 7.4162H4.13121C1.85324 7.4162 0 9.26943 0 11.5471V14.8959L0.00851117 14.9475L0.239136 15.0202C1.9831 15.5647 3.53955 15.8156 4.89145 15.8947V14.8835C4.892 12.6657 6.37294 10.7885 8.39833 10.1859Z" fill="#4D4D4D"/>
</svg>
