<svg width="20" height="21" viewBox="0 0 20 21" fill="none" xmlns="http://www.w3.org/2000/svg">
<path d="M10 0.109375C4.48598 0.109375 0 4.59538 0 10.1094C0 15.6235 4.48598 20.1095 10 20.1095C15.514 20.1095 20 15.6235 20 10.1094C20 4.59538 15.514 0.109375 10 0.109375ZM13.2312 13.9782C12.1896 15.0317 10.8002 15.6118 9.31914 15.6118C6.28516 15.6118 3.8168 13.1434 3.8168 10.1094C3.8168 7.07543 6.28516 4.6071 9.31914 4.6071C10.8002 4.6071 12.1895 5.18722 13.2312 6.24058C13.4132 6.42465 13.4116 6.72145 13.2275 6.90348C13.0434 7.08551 12.7466 7.08387 12.5646 6.89977C11.7004 6.02586 10.5479 5.5446 9.31914 5.5446C6.80207 5.5446 4.75434 7.59239 4.75434 10.1094C4.75434 12.6265 6.80211 14.6743 9.31914 14.6743C10.5479 14.6743 11.7004 14.193 12.5646 13.3191C12.7466 13.135 13.0434 13.1333 13.2275 13.3154C13.4116 13.4974 13.4132 13.7942 13.2312 13.9782ZM16.0459 10.4409L14.4025 12.0843C14.3109 12.1758 14.191 12.2216 14.071 12.2216C13.9511 12.2216 13.8311 12.1759 13.7396 12.0843C13.5565 11.9012 13.5565 11.6044 13.7396 11.4214L14.5828 10.5782H9.31914C9.06027 10.5782 8.85039 10.3683 8.85039 10.1094C8.85039 9.85057 9.06027 9.64068 9.31914 9.64068H14.5827L13.7396 8.79751C13.5565 8.61447 13.5565 8.31767 13.7396 8.13458C13.9227 7.95149 14.2194 7.95149 14.4025 8.13458L16.0459 9.77795C16.1338 9.86584 16.1832 9.9851 16.1832 10.1094C16.1832 10.2337 16.1338 10.353 16.0459 10.4409Z" fill="#212121" fill-opacity="0.8"/>
</svg>
