<svg width="20" height="20" viewBox="0 0 20 20" fill="none" xmlns="http://www.w3.org/2000/svg">
<path d="M18.7568 11.7601C18.934 11.8906 19.0662 12.0731 19.1349 12.2822C19.2037 12.4914 19.2055 12.7167 19.1402 12.9269C18.6876 14.374 17.9177 15.7019 16.8866 16.8136C16.7378 16.9732 16.5431 17.0828 16.3294 17.1271C16.1157 17.1715 15.8935 17.1485 15.6934 17.0614L14.2974 16.4487C14.1448 16.3809 13.9786 16.3496 13.8118 16.3573C13.6456 16.367 13.4841 16.4159 13.3405 16.5001C13.1967 16.5834 13.0747 16.6995 12.9844 16.839C12.8942 16.9785 12.8383 17.1375 12.8214 17.3028L12.6536 18.8237C12.6294 19.0403 12.5389 19.244 12.3945 19.4071C12.25 19.5702 12.0587 19.6847 11.8467 19.7349C10.3643 20.0884 8.81899 20.0884 7.33657 19.7349C7.12603 19.684 6.93616 19.5697 6.79253 19.4076C6.64889 19.2454 6.5584 19.0432 6.53324 18.828L6.36543 17.3099C6.33642 17.0512 6.21313 16.8122 6.0191 16.6387C5.86742 16.5049 5.68096 16.4168 5.4813 16.3846C5.28164 16.3524 5.07693 16.3773 4.89086 16.4566L3.49485 17.07C3.29531 17.1571 3.07371 17.1803 2.86046 17.1364C2.6472 17.0926 2.45274 16.9838 2.30377 16.825C1.27102 15.7122 0.500067 14.3825 0.0472911 12.9333C-0.0176278 12.7234 -0.0156646 12.4984 0.0529089 12.2896C0.121482 12.0808 0.253274 11.8985 0.430035 11.768L1.66182 10.8575C1.79641 10.7588 1.90587 10.6298 1.98131 10.4809C2.05676 10.3321 2.09608 10.1675 2.09608 10.0006C2.09608 9.83372 2.05676 9.66917 1.98131 9.5203C1.90587 9.37143 1.79641 9.24242 1.66182 9.14373L0.430035 8.23472C0.254218 8.10484 0.122998 7.92364 0.0544509 7.71608C-0.0140963 7.50852 -0.0165977 7.28481 0.0472911 7.07577C0.499941 5.62776 1.27067 4.2993 2.30306 3.18763C2.40303 3.07981 2.52442 2.99412 2.66009 2.93699C2.79225 2.88102 2.93431 2.85218 3.07783 2.85218C3.22135 2.85218 3.3634 2.88102 3.49556 2.93699L4.88587 3.54967C5.03882 3.61537 5.20503 3.64434 5.37119 3.63425C5.53735 3.62417 5.69884 3.57532 5.84273 3.49161C5.98662 3.4079 6.1089 3.29166 6.1998 3.1522C6.29069 3.01274 6.34766 2.85393 6.36614 2.68849L6.53467 1.17323C6.55917 0.954426 6.65132 0.748718 6.79825 0.584757C6.94519 0.420796 7.13961 0.306746 7.35442 0.258495C8.09243 0.0956719 8.84521 0.0090526 9.60091 0C10.3521 0.0085689 11.1005 0.094972 11.8338 0.258495C12.0491 0.30641 12.2439 0.420655 12.3909 0.58514C12.5378 0.749624 12.6294 0.956059 12.6529 1.17537L12.8214 2.68921C12.8392 2.85439 12.8957 3.01306 12.9863 3.15238C13.0768 3.29169 13.1988 3.40775 13.3425 3.49117C13.4862 3.57459 13.6475 3.62303 13.8134 3.63257C13.9793 3.64211 14.1451 3.61249 14.2974 3.5461L15.687 2.93414C15.8874 2.84694 16.1098 2.82388 16.3238 2.86812C16.5378 2.91235 16.7329 3.02171 16.8823 3.18121C17.9141 4.29172 18.6844 5.61899 19.1367 7.06577C19.2021 7.27555 19.2002 7.50051 19.1315 7.70921C19.0627 7.9179 18.9305 8.09989 18.7532 8.22972L17.525 9.13874C17.3899 9.23654 17.2798 9.36493 17.2038 9.51343C17.1278 9.66193 17.0881 9.8263 17.0878 9.99311C17.0875 10.1599 17.1267 10.3244 17.2022 10.4732C17.2777 10.6219 17.3873 10.7507 17.5221 10.8489L18.7568 11.7601ZM9.59376 12.8512C10.3513 12.8512 11.0778 12.5503 11.6135 12.0146C12.1491 11.479 12.4501 10.7524 12.4501 9.99491C12.4501 9.23737 12.1491 8.51086 11.6135 7.9752C11.0778 7.43954 10.3513 7.13861 9.59376 7.13861C8.83623 7.13861 8.10971 7.43954 7.57405 7.9752C7.03839 8.51086 6.73746 9.23737 6.73746 9.99491C6.73746 10.7524 7.03839 11.479 7.57405 12.0146C8.10971 12.5503 8.83623 12.8512 9.59376 12.8512Z" fill="#212121" fill-opacity="0.8"/>
</svg>
