<svg width="22" height="22" viewBox="0 0 22 22" fill="none" xmlns="http://www.w3.org/2000/svg">
<path d="M11.003 11.4241C14.1459 11.4241 16.715 8.8549 16.715 5.71203C16.715 2.56915 14.1459 0 11.003 0C7.86012 0 5.29102 2.56915 5.29102 5.71203C5.29102 8.8549 7.86017 11.4241 11.003 11.4241Z" fill="#4D4D4D"/>
<path d="M20.8049 15.5798C20.6552 15.2057 20.4557 14.8565 20.2312 14.5322C19.0838 12.836 17.3129 11.7136 15.3174 11.4392C15.068 11.4143 14.7936 11.4641 14.594 11.6138C13.5464 12.3871 12.2993 12.7862 11.0022 12.7862C9.70509 12.7862 8.45795 12.3871 7.41032 11.6138C7.21076 11.4641 6.93638 11.3893 6.68697 11.4392C4.6915 11.7136 2.89559 12.836 1.77316 14.5322C1.54867 14.8565 1.3491 15.2306 1.19947 15.5798C1.12466 15.7295 1.14958 15.9041 1.2244 16.0538C1.42396 16.403 1.67337 16.7522 1.89786 17.0515C2.24705 17.5255 2.62122 17.9495 3.04527 18.3486C3.39446 18.6977 3.79355 19.022 4.19268 19.3463C6.16318 20.818 8.53281 21.5912 10.9773 21.5912C13.4217 21.5912 15.7913 20.8179 17.7618 19.3463C18.1609 19.047 18.56 18.6977 18.9092 18.3486C19.3083 17.9495 19.7074 17.5254 20.0566 17.0515C20.3061 16.7272 20.5306 16.403 20.7301 16.0538C20.8548 15.9041 20.8797 15.7295 20.8049 15.5798Z" fill="#4D4D4D"/>
</svg>
